<svg width="1200" height="560" viewBox="0 0 1200 560" fill="none" xmlns="http://www.w3.org/2000/svg">
<rect width="1200" height="560" fill="white"/>
<rect x="585" y="113" width="30" height="30" rx="10" fill="#D9D9D9"/>
<rect x="522" y="223" width="30" height="30" rx="10" fill="#D9D9D9"/>
<rect x="725" y="113" width="30" height="30" rx="10" fill="#D9D9D9"/>
<rect x="445" y="113" width="30" height="30" rx="10" fill="#D9D9D9"/>
<rect x="338" y="217" width="30" height="30" rx="10" fill="#D9D9D9"/>
<rect x="216" y="436" width="30" height="30" rx="10" fill="#D9D9D9"/>
<rect x="484" y="436" width="30" height="30" rx="10" fill="#D9D9D9"/>
<rect x="350" y="436" width="30" height="30" rx="10" fill="#D9D9D9"/>
<rect x="618" y="436" width="30" height="30" rx="10" fill="#D9D9D9"/>
<rect x="685" y="436" width="30" height="30" rx="10" fill="#D9D9D9"/>
<rect x="579" y="340" width="30" height="30" rx="10" fill="#D9D9D9"/>
<rect x="512" y="304" width="30" height="30" rx="10" fill="#D9D9D9"/>
<rect x="867" y="148" width="30" height="30" rx="10" fill="#D9D9D9"/>
<rect x="923" y="244" width="30" height="30" rx="10" fill="#D9D9D9"/>
<rect x="911" y="346" width="30" height="30" rx="10" fill="#D9D9D9"/>
<rect x="911" y="440" width="30" height="30" rx="10" fill="#D9D9D9"/>
<rect x="271" y="217" width="30" height="30" rx="10" fill="#D9D9D9"/>
<rect x="149" y="436" width="30" height="30" rx="10" fill="#D9D9D9"/>
<rect x="417" y="436" width="30" height="30" rx="10" fill="#D9D9D9"/>
<rect x="283" y="436" width="30" height="30" rx="10" fill="#D9D9D9"/>
<rect x="551" y="436" width="30" height="30" rx="10" fill="#D9D9D9"/>
<rect x="867" y="195" width="30" height="30" rx="10" fill="#D9D9D9"/>
<rect x="923" y="291" width="30" height="30" rx="10" fill="#D9D9D9"/>
<rect x="851" y="393" width="30" height="30" rx="10" fill="#D9D9D9"/>
<rect x="550" y="33" width="100" height="50" rx="20" fill="#75EEFF"/>
<path d="M587.282 54.12H590.342V55.155H587.282V54.12ZM589.952 50.61H591.197V58.695H589.952V50.61ZM586.742 59.1C589.532 59.1 591.257 60.045 591.257 61.635C591.257 63.24 589.532 64.155 586.742 64.155C583.937 64.155 582.212 63.24 582.212 61.635C582.212 60.045 583.937 59.1 586.742 59.1ZM586.742 60.075C584.702 60.075 583.457 60.645 583.457 61.635C583.457 62.61 584.702 63.18 586.742 63.18C588.782 63.18 590.027 62.61 590.027 61.635C590.027 60.645 588.782 60.075 586.742 60.075ZM583.502 51.975H584.522V53.07C584.522 55.575 582.992 57.72 580.742 58.56L580.097 57.57C582.107 56.835 583.502 55.02 583.502 53.07V51.975ZM583.742 51.975H584.747V53.07C584.747 54.825 586.067 56.505 588.032 57.195L587.402 58.185C585.197 57.39 583.742 55.35 583.742 53.07V51.975ZM580.472 51.6H587.717V52.62H580.472V51.6ZM599.326 51.09H600.421V51.84C600.421 54.435 597.781 56.295 594.961 56.775L594.466 55.77C596.941 55.395 599.326 53.775 599.326 51.84V51.09ZM599.551 51.09H600.631V51.84C600.631 53.73 603.046 55.395 605.491 55.77L604.996 56.775C602.206 56.295 599.551 54.405 599.551 51.84V51.09ZM599.326 59.01H600.556V64.17H599.326V59.01ZM593.851 58.245H606.106V59.28H593.851V58.245ZM610.979 52.065H611.999V53.16C611.999 55.65 610.499 57.735 608.219 58.56L607.589 57.57C609.629 56.85 610.979 55.095 610.979 53.16V52.065ZM611.204 52.065H612.224V53.145C612.224 54.915 613.514 56.505 615.509 57.165L614.909 58.14C612.644 57.39 611.204 55.455 611.204 53.145V52.065ZM607.964 51.615H615.209V52.635H607.964V51.615ZM616.919 50.61H618.164V58.785H616.919V50.61ZM617.819 54.045H620.174V55.095H617.819V54.045ZM613.844 59.145C616.604 59.145 618.299 60.06 618.299 61.635C618.299 63.225 616.604 64.14 613.844 64.14C611.084 64.14 609.389 63.225 609.389 61.635C609.389 60.06 611.084 59.145 613.844 59.145ZM613.844 60.15C611.834 60.15 610.604 60.69 610.604 61.635C610.604 62.595 611.834 63.165 613.844 63.165C615.854 63.165 617.084 62.595 617.084 61.635C617.084 60.69 615.854 60.15 613.844 60.15Z" fill="black"/>
<path d="M596.919 133V122.091H603.46V123.263H598.24V126.949H602.97V128.121H598.24V133H596.919Z" fill="black"/>
<path d="M533.919 243V232.091H540.46V233.263H535.24V236.949H539.97V238.121H535.24V243H533.919Z" fill="black"/>
<path d="M736.919 133V122.091H743.46V123.263H738.24V126.949H742.97V128.121H738.24V133H736.919Z" fill="black"/>
<path d="M456.919 133V122.091H463.46V123.263H458.24V126.949H462.97V128.121H458.24V133H456.919Z" fill="black"/>
<path d="M349.919 237V226.091H356.46V227.263H351.24V230.949H355.97V232.121H351.24V237H349.919Z" fill="black"/>
<path d="M227.919 456V445.091H234.46V446.263H229.24V449.949H233.97V451.121H229.24V456H227.919Z" fill="black"/>
<path d="M495.919 456V445.091H502.46V446.263H497.24V449.949H501.97V451.121H497.24V456H495.919Z" fill="black"/>
<path d="M361.919 456V445.091H368.46V446.263H363.24V449.949H367.97V451.121H363.24V456H361.919Z" fill="black"/>
<path d="M629.919 456V445.091H636.46V446.263H631.24V449.949H635.97V451.121H631.24V456H629.919Z" fill="black"/>
<path d="M696.919 456V445.091H703.46V446.263H698.24V449.949H702.97V451.121H698.24V456H696.919Z" fill="black"/>
<path d="M590.919 360V349.091H597.46V350.263H592.24V353.949H596.97V355.121H592.24V360H590.919Z" fill="black"/>
<path d="M523.919 324V313.091H530.46V314.263H525.24V317.949H529.97V319.121H525.24V324H523.919Z" fill="black"/>
<path d="M878.919 168V157.091H885.46V158.263H880.24V161.949H884.97V163.121H880.24V168H878.919Z" fill="black"/>
<path d="M934.919 264V253.091H941.46V254.263H936.24V257.949H940.97V259.121H936.24V264H934.919Z" fill="black"/>
<path d="M922.919 366V355.091H929.46V356.263H924.24V359.949H928.97V361.121H924.24V366H922.919Z" fill="black"/>
<path d="M922.919 460V449.091H929.46V450.263H924.24V453.949H928.97V455.121H924.24V460H922.919Z" fill="black"/>
<path d="M282.919 237V226.091H289.46V227.263H284.24V230.949H288.97V232.121H284.24V237H282.919Z" fill="black"/>
<path d="M160.919 456V445.091H167.46V446.263H162.24V449.949H166.97V451.121H162.24V456H160.919Z" fill="black"/>
<path d="M428.919 456V445.091H435.46V446.263H430.24V449.949H434.97V451.121H430.24V456H428.919Z" fill="black"/>
<path d="M294.919 456V445.091H301.46V446.263H296.24V449.949H300.97V451.121H296.24V456H294.919Z" fill="black"/>
<path d="M562.919 456V445.091H569.46V446.263H564.24V449.949H568.97V451.121H564.24V456H562.919Z" fill="black"/>
<path d="M878.919 215V204.091H885.46V205.263H880.24V208.949H884.97V210.121H880.24V215H878.919Z" fill="black"/>
<path d="M934.919 311V300.091H941.46V301.263H936.24V304.949H940.97V306.121H936.24V311H934.919Z" fill="black"/>
<path d="M862.919 413V402.091H869.46V403.263H864.24V406.949H868.97V408.121H864.24V413H862.919Z" fill="black"/>
<rect x="500" y="112" width="60" height="30" rx="10" fill="#FFC83A"/>
<path d="M522.123 121V115.909H525.175V116.456H522.739V118.176H524.947V118.723H522.739V121H522.123ZM525.958 118.557H531.691V119.033H525.958V118.557ZM528.576 118.795H529.157V120.251H528.576V118.795ZM526.686 120.93H531.054V121.406H526.686V120.93ZM526.686 119.691H527.26V121.112H526.686V119.691ZM526.721 115.414H527.295V116.219H530.354V115.414H530.935V117.948H526.721V115.414ZM527.295 116.674V117.479H530.354V116.674H527.295ZM537.01 115.218H537.591V121.546H537.01V115.218ZM535.155 115.897H535.729C535.729 117.731 534.903 119.334 532.789 120.37L532.481 119.901C534.308 119.019 535.155 117.675 535.155 115.995V115.897ZM532.768 115.897H535.407V116.373H532.768V115.897Z" fill="black"/>
<path d="M500 124H560V132C560 137.523 555.523 142 550 142H510C504.477 142 500 137.523 500 132V124Z" fill="#FF7070"/>
<circle cx="520" cy="133" r="6" fill="white"/>
<circle cx="540" cy="133" r="6" fill="white"/>
<path d="M518.165 136V130.182H520.131C520.588 130.182 520.961 130.264 521.251 130.429C521.542 130.592 521.758 130.812 521.898 131.091C522.039 131.369 522.109 131.68 522.109 132.023C522.109 132.366 522.039 132.677 521.898 132.957C521.76 133.238 521.546 133.461 521.256 133.628C520.967 133.793 520.595 133.875 520.143 133.875H518.734V133.25H520.12C520.433 133.25 520.683 133.196 520.873 133.088C521.062 132.98 521.2 132.834 521.285 132.651C521.372 132.465 521.415 132.256 521.415 132.023C521.415 131.79 521.372 131.581 521.285 131.398C521.2 131.214 521.061 131.07 520.87 130.966C520.679 130.86 520.425 130.807 520.109 130.807H518.87V136H518.165Z" fill="black"/>
<path d="M538.357 136V130.182H541.846V130.807H539.061V132.773H541.584V133.398H539.061V136H538.357Z" fill="black"/>
<rect x="422" y="172" width="60" height="30" rx="10" fill="#FFC83A"/>
<path d="M444.085 181V175.909H447.158V176.456H444.702V178.176H446.999V178.723H444.702V180.453H447.197V181H444.085ZM447.995 178.557H453.728V179.033H447.995V178.557ZM450.613 178.795H451.194V180.251H450.613V178.795ZM448.723 180.93H453.091V181.406H448.723V180.93ZM448.723 179.691H449.297V181.112H448.723V179.691ZM448.758 175.414H449.332V176.219H452.391V175.414H452.972V177.948H448.758V175.414ZM449.332 176.674V177.479H452.391V176.674H449.332ZM459.048 175.218H459.629V181.546H459.048V175.218ZM457.193 175.897H457.767C457.767 177.731 456.941 179.334 454.827 180.37L454.519 179.901C456.346 179.019 457.193 177.675 457.193 175.995V175.897ZM454.806 175.897H457.445V176.373H454.806V175.897Z" fill="black"/>
<path d="M422 184H482V192C482 197.523 477.523 202 472 202H432C426.477 202 422 197.523 422 192V184Z" fill="#FF7070"/>
<circle cx="442" cy="193" r="6" fill="white"/>
<circle cx="462" cy="193" r="6" fill="white"/>
<path d="M440.165 196V190.182H442.131C442.588 190.182 442.961 190.264 443.251 190.429C443.542 190.592 443.758 190.812 443.898 191.091C444.039 191.369 444.109 191.68 444.109 192.023C444.109 192.366 444.039 192.677 443.898 192.957C443.76 193.238 443.546 193.461 443.256 193.628C442.967 193.793 442.595 193.875 442.143 193.875H440.734V193.25H442.12C442.433 193.25 442.683 193.196 442.873 193.088C443.062 192.98 443.2 192.834 443.285 192.651C443.372 192.465 443.415 192.256 443.415 192.023C443.415 191.79 443.372 191.581 443.285 191.398C443.2 191.214 443.061 191.07 442.87 190.966C442.679 190.86 442.425 190.807 442.109 190.807H440.87V196H440.165Z" fill="black"/>
<path d="M460.357 196V190.182H463.846V190.807H461.061V192.773H463.584V193.398H461.061V196H460.357Z" fill="black"/>
<rect x="442" y="222" width="60" height="30" rx="10" fill="#FFC83A"/>
<path d="M465.867 225.909V231H465.251V225.909H465.867ZM466.83 228.557H472.563V229.033H466.83V228.557ZM469.448 228.795H470.029V230.251H469.448V228.795ZM467.558 230.93H471.926V231.406H467.558V230.93ZM467.558 229.691H468.132V231.112H467.558V229.691ZM467.593 225.414H468.167V226.219H471.226V225.414H471.807V227.948H467.593V225.414ZM468.167 226.674V227.479H471.226V226.674H468.167ZM477.882 225.218H478.463V231.546H477.882V225.218ZM476.027 225.897H476.601C476.601 227.731 475.775 229.334 473.661 230.37L473.353 229.901C475.18 229.019 476.027 227.675 476.027 225.995V225.897ZM473.64 225.897H476.279V226.373H473.64V225.897Z" fill="black"/>
<path d="M442 234H502V242C502 247.523 497.523 252 492 252H452C446.477 252 442 247.523 442 242V234Z" fill="#FF7070"/>
<circle cx="462" cy="243" r="6" fill="white"/>
<circle cx="482" cy="243" r="6" fill="white"/>
<path d="M460.165 246V240.182H462.131C462.588 240.182 462.961 240.264 463.251 240.429C463.542 240.592 463.758 240.812 463.898 241.091C464.039 241.369 464.109 241.68 464.109 242.023C464.109 242.366 464.039 242.677 463.898 242.957C463.76 243.238 463.546 243.461 463.256 243.628C462.967 243.793 462.595 243.875 462.143 243.875H460.734V243.25H462.12C462.433 243.25 462.683 243.196 462.873 243.088C463.062 242.98 463.2 242.834 463.285 242.651C463.372 242.465 463.415 242.256 463.415 242.023C463.415 241.79 463.372 241.581 463.285 241.398C463.2 241.214 463.061 241.07 462.87 240.966C462.679 240.86 462.425 240.807 462.109 240.807H460.87V246H460.165Z" fill="black"/>
<path d="M480.357 246V240.182H483.846V240.807H481.061V242.773H483.584V243.398H481.061V246H480.357Z" fill="black"/>
<rect x="402" y="304" width="60" height="30" rx="10" fill="#FFC83A"/>
<path d="M423.586 313V307.909H424.203V310.176H426.917V307.909H427.534V313H426.917V310.723H424.203V313H423.586ZM428.494 310.557H434.227V311.033H428.494V310.557ZM431.112 310.795H431.693V312.251H431.112V310.795ZM429.222 312.93H433.59V313.406H429.222V312.93ZM429.222 311.691H429.796V313.112H429.222V311.691ZM429.257 307.414H429.831V308.219H432.89V307.414H433.471V309.948H429.257V307.414ZM429.831 308.674V309.479H432.89V308.674H429.831ZM439.547 307.218H440.128V313.546H439.547V307.218ZM437.692 307.897H438.266C438.266 309.731 437.44 311.334 435.326 312.37L435.018 311.901C436.845 311.019 437.692 309.675 437.692 307.995V307.897ZM435.305 307.897H437.944V308.373H435.305V307.897Z" fill="black"/>
<path d="M402 316H462V324C462 329.523 457.523 334 452 334H412C406.477 334 402 329.523 402 324V316Z" fill="#FF7070"/>
<circle cx="422" cy="325" r="6" fill="white"/>
<circle cx="442" cy="325" r="6" fill="white"/>
<path d="M420.165 328V322.182H422.131C422.588 322.182 422.961 322.264 423.251 322.429C423.542 322.592 423.758 322.812 423.898 323.091C424.039 323.369 424.109 323.68 424.109 324.023C424.109 324.366 424.039 324.677 423.898 324.957C423.76 325.238 423.546 325.461 423.256 325.628C422.967 325.793 422.595 325.875 422.143 325.875H420.734V325.25H422.12C422.433 325.25 422.683 325.196 422.873 325.088C423.062 324.98 423.2 324.834 423.285 324.651C423.372 324.465 423.415 324.256 423.415 324.023C423.415 323.79 423.372 323.581 423.285 323.398C423.2 323.214 423.061 323.07 422.87 322.966C422.679 322.86 422.425 322.807 422.109 322.807H420.87V328H420.165Z" fill="black"/>
<path d="M440.357 328V322.182H443.846V322.807H441.061V324.773H443.584V325.398H441.061V328H440.357Z" fill="black"/>
<rect x="564" y="298" width="60" height="30" rx="10" fill="#FFC83A"/>
<path d="M586.208 307V301.909H586.825V306.453H589.191V307H586.208ZM589.872 304.557H595.605V305.033H589.872V304.557ZM592.49 304.795H593.071V306.251H592.49V304.795ZM590.6 306.93H594.968V307.406H590.6V306.93ZM590.6 305.691H591.174V307.112H590.6V305.691ZM590.635 301.414H591.209V302.219H594.268V301.414H594.849V303.948H590.635V301.414ZM591.209 302.674V303.479H594.268V302.674H591.209ZM600.925 301.218H601.506V307.546H600.925V301.218ZM599.07 301.897H599.644C599.644 303.731 598.818 305.334 596.704 306.37L596.396 305.901C598.223 305.019 599.07 303.675 599.07 301.995V301.897ZM596.683 301.897H599.322V302.373H596.683V301.897Z" fill="black"/>
<path d="M564 310H624V318C624 323.523 619.523 328 614 328H574C568.477 328 564 323.523 564 318V310Z" fill="#FF7070"/>
<circle cx="584" cy="319" r="6" fill="white"/>
<circle cx="604" cy="319" r="6" fill="white"/>
<path d="M582.165 322V316.182H584.131C584.588 316.182 584.961 316.264 585.251 316.429C585.542 316.592 585.758 316.812 585.898 317.091C586.039 317.369 586.109 317.68 586.109 318.023C586.109 318.366 586.039 318.677 585.898 318.957C585.76 319.238 585.546 319.461 585.256 319.628C584.967 319.793 584.595 319.875 584.143 319.875H582.734V319.25H584.12C584.433 319.25 584.683 319.196 584.873 319.088C585.062 318.98 585.2 318.834 585.285 318.651C585.372 318.465 585.415 318.256 585.415 318.023C585.415 317.79 585.372 317.581 585.285 317.398C585.2 317.214 585.061 317.07 584.87 316.966C584.679 316.86 584.425 316.807 584.109 316.807H582.87V322H582.165Z" fill="black"/>
<path d="M602.357 322V316.182H605.846V316.807H603.061V318.773H605.584V319.398H603.061V322H602.357Z" fill="black"/>
<rect x="711" y="268" width="60" height="30" rx="10" fill="#FFC83A"/>
<path d="M736.727 273.5H736.111C736.074 273.323 736.01 273.167 735.919 273.033C735.83 272.898 735.72 272.786 735.591 272.695C735.464 272.602 735.322 272.532 735.166 272.486C735.01 272.439 734.848 272.416 734.679 272.416C734.371 272.416 734.091 272.494 733.841 272.65C733.593 272.806 733.395 273.035 733.247 273.338C733.101 273.642 733.028 274.014 733.028 274.455C733.028 274.895 733.101 275.267 733.247 275.571C733.395 275.874 733.593 276.103 733.841 276.259C734.091 276.415 734.371 276.493 734.679 276.493C734.848 276.493 735.01 276.47 735.166 276.423C735.322 276.377 735.464 276.308 735.591 276.217C735.72 276.124 735.83 276.011 735.919 275.876C736.01 275.741 736.074 275.585 736.111 275.409H736.727C736.681 275.669 736.596 275.902 736.474 276.108C736.351 276.313 736.199 276.488 736.016 276.632C735.834 276.775 735.629 276.883 735.402 276.958C735.177 277.032 734.936 277.07 734.679 277.07C734.245 277.07 733.859 276.964 733.521 276.751C733.182 276.539 732.917 276.238 732.723 275.847C732.529 275.455 732.432 274.991 732.432 274.455C732.432 273.918 732.529 273.454 732.723 273.062C732.917 272.671 733.182 272.37 733.521 272.158C733.859 271.946 734.245 271.839 734.679 271.839C734.936 271.839 735.177 271.877 735.402 271.951C735.629 272.026 735.834 272.135 736.016 272.279C736.199 272.422 736.351 272.596 736.474 272.801C736.596 273.005 736.681 273.238 736.727 273.5ZM737.45 274.557H743.183V275.033H737.45V274.557ZM740.068 274.795H740.649V276.251H740.068V274.795ZM738.178 276.93H742.546V277.406H738.178V276.93ZM738.178 275.691H738.752V277.112H738.178V275.691ZM738.213 271.414H738.787V272.219H741.846V271.414H742.427V273.948H738.213V271.414ZM738.787 272.674V273.479H741.846V272.674H738.787ZM748.502 271.218H749.083V277.546H748.502V271.218ZM746.647 271.897H747.221C747.221 273.731 746.395 275.334 744.281 276.37L743.973 275.901C745.8 275.019 746.647 273.675 746.647 271.995V271.897ZM744.26 271.897H746.899V272.373H744.26V271.897Z" fill="black"/>
<path d="M711 280H771V288C771 293.523 766.523 298 761 298H721C715.477 298 711 293.523 711 288V280Z" fill="#FF7070"/>
<circle cx="741" cy="289" r="6" fill="white"/>
<path d="M739.165 292V286.182H741.131C741.588 286.182 741.961 286.264 742.251 286.429C742.542 286.592 742.758 286.812 742.898 287.091C743.039 287.369 743.109 287.68 743.109 288.023C743.109 288.366 743.039 288.677 742.898 288.957C742.76 289.238 742.546 289.461 742.256 289.628C741.967 289.793 741.595 289.875 741.143 289.875H739.734V289.25H741.12C741.433 289.25 741.683 289.196 741.873 289.088C742.062 288.98 742.2 288.834 742.285 288.651C742.372 288.465 742.415 288.256 742.415 288.023C742.415 287.79 742.372 287.581 742.285 287.398C742.2 287.214 742.061 287.07 741.87 286.966C741.679 286.86 741.425 286.807 741.109 286.807H739.87V292H739.165Z" fill="black"/>
<rect x="630" y="268" width="60" height="30" rx="10" fill="#FFC83A"/>
<path d="M654.225 271.909H654.842V275.548C654.842 275.873 654.782 276.149 654.663 276.376C654.544 276.603 654.375 276.775 654.158 276.893C653.941 277.011 653.685 277.07 653.39 277.07C653.112 277.07 652.864 277.019 652.647 276.918C652.43 276.815 652.259 276.669 652.135 276.48C652.011 276.292 651.949 276.067 651.949 275.807H652.555C652.555 275.951 652.591 276.077 652.662 276.185C652.735 276.291 652.834 276.374 652.96 276.433C653.086 276.493 653.23 276.523 653.39 276.523C653.568 276.523 653.718 276.485 653.843 276.411C653.967 276.336 654.061 276.227 654.126 276.083C654.192 275.937 654.225 275.759 654.225 275.548V271.909ZM655.804 274.557H661.537V275.033H655.804V274.557ZM658.422 274.795H659.003V276.251H658.422V274.795ZM656.532 276.93H660.9V277.406H656.532V276.93ZM656.532 275.691H657.106V277.112H656.532V275.691ZM656.567 271.414H657.141V272.219H660.2V271.414H660.781V273.948H656.567V271.414ZM657.141 272.674V273.479H660.2V272.674H657.141ZM666.856 271.218H667.437V277.546H666.856V271.218ZM665.001 271.897H665.575C665.575 273.731 664.749 275.334 662.635 276.37L662.327 275.901C664.154 275.019 665.001 273.675 665.001 271.995V271.897ZM662.614 271.897H665.253V272.373H662.614V271.897Z" fill="black"/>
<path d="M630 280H690V288C690 293.523 685.523 298 680 298H640C634.477 298 630 293.523 630 288V280Z" fill="#FF7070"/>
<circle cx="650" cy="289" r="6" fill="white"/>
<circle cx="670" cy="289" r="6" fill="white"/>
<path d="M648.165 292V286.182H650.131C650.588 286.182 650.961 286.264 651.251 286.429C651.542 286.592 651.758 286.812 651.898 287.091C652.039 287.369 652.109 287.68 652.109 288.023C652.109 288.366 652.039 288.677 651.898 288.957C651.76 289.238 651.546 289.461 651.256 289.628C650.967 289.793 650.595 289.875 650.143 289.875H648.734V289.25H650.12C650.433 289.25 650.683 289.196 650.873 289.088C651.062 288.98 651.2 288.834 651.285 288.651C651.372 288.465 651.415 288.256 651.415 288.023C651.415 287.79 651.372 287.581 651.285 287.398C651.2 287.214 651.061 287.07 650.87 286.966C650.679 286.86 650.425 286.807 650.109 286.807H648.87V292H648.165Z" fill="black"/>
<path d="M668.357 292V286.182H671.846V286.807H669.061V288.773H671.584V289.398H669.061V292H668.357Z" fill="black"/>
<rect x="825" y="268" width="60" height="30" rx="10" fill="#FFC83A"/>
<path d="M846.894 277V271.909H847.51V274.435H847.57L849.857 271.909H850.662L848.525 274.206L850.662 277H849.917L848.147 274.634L847.51 275.349V277H846.894ZM851.187 274.557H856.92V275.033H851.187V274.557ZM853.805 274.795H854.386V276.251H853.805V274.795ZM851.915 276.93H856.283V277.406H851.915V276.93ZM851.915 275.691H852.489V277.112H851.915V275.691ZM851.95 271.414H852.524V272.219H855.583V271.414H856.164V273.948H851.95V271.414ZM852.524 272.674V273.479H855.583V272.674H852.524ZM862.239 271.218H862.82V277.546H862.239V271.218ZM860.384 271.897H860.958C860.958 273.731 860.132 275.334 858.018 276.37L857.71 275.901C859.537 275.019 860.384 273.675 860.384 271.995V271.897ZM857.997 271.897H860.636V272.373H857.997V271.897Z" fill="black"/>
<path d="M825 280H885V288C885 293.523 880.523 298 875 298H835C829.477 298 825 293.523 825 288V280Z" fill="#FF7070"/>
<circle cx="845" cy="289" r="6" fill="white"/>
<circle cx="865" cy="289" r="6" fill="white"/>
<path d="M843.165 292V286.182H845.131C845.588 286.182 845.961 286.264 846.251 286.429C846.542 286.592 846.758 286.812 846.898 287.091C847.039 287.369 847.109 287.68 847.109 288.023C847.109 288.366 847.039 288.677 846.898 288.957C846.76 289.238 846.546 289.461 846.256 289.628C845.967 289.793 845.595 289.875 845.143 289.875H843.734V289.25H845.12C845.433 289.25 845.683 289.196 845.873 289.088C846.062 288.98 846.2 288.834 846.285 288.651C846.372 288.465 846.415 288.256 846.415 288.023C846.415 287.79 846.372 287.581 846.285 287.398C846.2 287.214 846.061 287.07 845.87 286.966C845.679 286.86 845.425 286.807 845.109 286.807H843.87V292H843.165Z" fill="black"/>
<path d="M863.357 292V286.182H866.846V286.807H864.061V288.773H866.584V289.398H864.061V292H863.357Z" fill="black"/>
<rect x="711" y="393" width="60" height="30" rx="10" fill="#FFC83A"/>
<path d="M732.063 396.909H732.799L734.529 401.135H734.589L736.319 396.909H737.055V402H736.478V398.132H736.428L734.837 402H734.281L732.69 398.132H732.64V402H732.063V396.909ZM738.017 399.557H743.75V400.033H738.017V399.557ZM740.635 399.795H741.216V401.251H740.635V399.795ZM738.745 401.93H743.113V402.406H738.745V401.93ZM738.745 400.691H739.319V402.112H738.745V400.691ZM738.78 396.414H739.354V397.219H742.413V396.414H742.994V398.948H738.78V396.414ZM739.354 397.674V398.479H742.413V397.674H739.354ZM749.07 396.218H749.651V402.546H749.07V396.218ZM747.215 396.897H747.789C747.789 398.731 746.963 400.334 744.849 401.37L744.541 400.901C746.368 400.019 747.215 398.675 747.215 396.995V396.897ZM744.828 396.897H747.467V397.373H744.828V396.897Z" fill="black"/>
<path d="M711 405H771V413C771 418.523 766.523 423 761 423H721C715.477 423 711 418.523 711 413V405Z" fill="#FF7070"/>
<circle cx="731" cy="414" r="6" fill="white"/>
<circle cx="751" cy="414" r="6" fill="white"/>
<path d="M729.165 417V411.182H731.131C731.588 411.182 731.961 411.264 732.251 411.429C732.542 411.592 732.758 411.812 732.898 412.091C733.039 412.369 733.109 412.68 733.109 413.023C733.109 413.366 733.039 413.677 732.898 413.957C732.76 414.238 732.546 414.461 732.256 414.628C731.967 414.793 731.595 414.875 731.143 414.875H729.734V414.25H731.12C731.433 414.25 731.683 414.196 731.873 414.088C732.062 413.98 732.2 413.834 732.285 413.651C732.372 413.465 732.415 413.256 732.415 413.023C732.415 412.79 732.372 412.581 732.285 412.398C732.2 412.214 732.061 412.07 731.87 411.966C731.679 411.86 731.425 411.807 731.109 411.807H729.87V417H729.165Z" fill="black"/>
<path d="M749.357 417V411.182H752.846V411.807H750.061V413.773H752.584V414.398H750.061V417H749.357Z" fill="black"/>
<rect x="836" y="346" width="60" height="30" rx="10" fill="#FFC83A"/>
<path d="M861.579 349.909V355H860.982L858.208 351.003H858.158V355H857.542V349.909H858.138L860.922 353.916H860.972V349.909H861.579ZM862.539 352.557H868.272V353.033H862.539V352.557ZM865.157 352.795H865.738V354.251H865.157V352.795ZM863.267 354.93H867.635V355.406H863.267V354.93ZM863.267 353.691H863.841V355.112H863.267V353.691ZM863.302 349.414H863.876V350.219H866.935V349.414H867.516V351.948H863.302V349.414ZM863.876 350.674V351.479H866.935V350.674H863.876ZM873.591 349.218H874.172V355.546H873.591V349.218ZM871.736 349.897H872.31C872.31 351.731 871.484 353.334 869.37 354.37L869.062 353.901C870.889 353.019 871.736 351.675 871.736 349.995V349.897ZM869.349 349.897H871.988V350.373H869.349V349.897Z" fill="black"/>
<path d="M836 358H896V366C896 371.523 891.523 376 886 376H846C840.477 376 836 371.523 836 366V358Z" fill="#FF7070"/>
<circle cx="856" cy="367" r="6" fill="white"/>
<circle cx="876" cy="367" r="6" fill="white"/>
<path d="M854.165 370V364.182H856.131C856.588 364.182 856.961 364.264 857.251 364.429C857.542 364.592 857.758 364.812 857.898 365.091C858.039 365.369 858.109 365.68 858.109 366.023C858.109 366.366 858.039 366.677 857.898 366.957C857.76 367.238 857.546 367.461 857.256 367.628C856.967 367.793 856.595 367.875 856.143 367.875H854.734V367.25H856.12C856.433 367.25 856.683 367.196 856.873 367.088C857.062 366.98 857.2 366.834 857.285 366.651C857.372 366.465 857.415 366.256 857.415 366.023C857.415 365.79 857.372 365.581 857.285 365.398C857.2 365.214 857.061 365.07 856.87 364.966C856.679 364.86 856.425 364.807 856.109 364.807H854.87V370H854.165Z" fill="black"/>
<path d="M874.357 370V364.182H877.846V364.807H875.061V366.773H877.584V367.398H875.061V370H874.357Z" fill="black"/>
<rect x="836" y="440" width="60" height="30" rx="10" fill="#FFC83A"/>
<path d="M861.806 446.455C861.806 446.991 861.71 447.455 861.516 447.847C861.322 448.238 861.056 448.539 860.718 448.751C860.38 448.964 859.993 449.07 859.559 449.07C859.125 449.07 858.739 448.964 858.401 448.751C858.063 448.539 857.797 448.238 857.603 447.847C857.409 447.455 857.312 446.991 857.312 446.455C857.312 445.918 857.409 445.454 857.603 445.062C857.797 444.671 858.063 444.37 858.401 444.158C858.739 443.946 859.125 443.839 859.559 443.839C859.993 443.839 860.38 443.946 860.718 444.158C861.056 444.37 861.322 444.671 861.516 445.062C861.71 445.454 861.806 445.918 861.806 446.455ZM861.21 446.455C861.21 446.014 861.136 445.642 860.989 445.338C860.843 445.035 860.645 444.806 860.395 444.65C860.146 444.494 859.868 444.416 859.559 444.416C859.251 444.416 858.972 444.494 858.722 444.65C858.473 444.806 858.275 445.035 858.127 445.338C857.982 445.642 857.909 446.014 857.909 446.455C857.909 446.895 857.982 447.267 858.127 447.571C858.275 447.874 858.473 448.103 858.722 448.259C858.972 448.415 859.251 448.493 859.559 448.493C859.868 448.493 860.146 448.415 860.395 448.259C860.645 448.103 860.843 447.874 860.989 447.571C861.136 447.267 861.21 446.895 861.21 446.455ZM862.57 446.557H868.303V447.033H862.57V446.557ZM865.188 446.795H865.769V448.251H865.188V446.795ZM863.298 448.93H867.666V449.406H863.298V448.93ZM863.298 447.691H863.872V449.112H863.298V447.691ZM863.333 443.414H863.907V444.219H866.966V443.414H867.547V445.948H863.333V443.414ZM863.907 444.674V445.479H866.966V444.674H863.907ZM873.622 443.218H874.203V449.546H873.622V443.218ZM871.767 443.897H872.341C872.341 445.731 871.515 447.334 869.401 448.37L869.093 447.901C870.92 447.019 871.767 445.675 871.767 443.995V443.897ZM869.38 443.897H872.019V444.373H869.38V443.897Z" fill="black"/>
<path d="M836 452H896V460C896 465.523 891.523 470 886 470H846C840.477 470 836 465.523 836 460V452Z" fill="#FF7070"/>
<circle cx="866" cy="461" r="6" fill="white"/>
<path d="M864.165 464V458.182H866.131C866.588 458.182 866.961 458.264 867.251 458.429C867.542 458.592 867.758 458.812 867.898 459.091C868.039 459.369 868.109 459.68 868.109 460.023C868.109 460.366 868.039 460.677 867.898 460.957C867.76 461.238 867.546 461.461 867.256 461.628C866.967 461.793 866.595 461.875 866.143 461.875H864.734V461.25H866.12C866.433 461.25 866.683 461.196 866.873 461.088C867.062 460.98 867.2 460.834 867.285 460.651C867.372 460.465 867.415 460.256 867.415 460.023C867.415 459.79 867.372 459.581 867.285 459.398C867.2 459.214 867.061 459.07 866.87 458.966C866.679 458.86 866.425 458.807 866.109 458.807H864.87V464H864.165Z" fill="black"/>
<rect x="289" y="172" width="60" height="30" rx="10" fill="#FFC83A"/>
<path d="M314.056 177.5C314.001 177.333 313.929 177.183 313.84 177.05C313.752 176.916 313.647 176.801 313.524 176.707C313.403 176.613 313.266 176.54 313.111 176.491C312.957 176.441 312.788 176.416 312.604 176.416C312.303 176.416 312.028 176.494 311.782 176.65C311.535 176.806 311.338 177.035 311.192 177.338C311.047 177.642 310.974 178.014 310.974 178.455C310.974 178.895 311.047 179.267 311.195 179.571C311.342 179.874 311.542 180.103 311.794 180.259C312.046 180.415 312.329 180.493 312.644 180.493C312.936 180.493 313.193 180.431 313.415 180.306C313.638 180.181 313.812 180.003 313.937 179.775C314.063 179.544 314.126 179.273 314.126 178.962L314.315 179.001H312.783V178.455H314.722V179.001C314.722 179.421 314.633 179.785 314.454 180.095C314.276 180.405 314.031 180.645 313.718 180.816C313.406 180.985 313.048 181.07 312.644 181.07C312.193 181.07 311.797 180.964 311.456 180.751C311.116 180.539 310.851 180.238 310.66 179.847C310.472 179.455 310.377 178.991 310.377 178.455C310.377 178.052 310.431 177.69 310.539 177.368C310.648 177.045 310.802 176.77 311.001 176.543C311.2 176.316 311.435 176.142 311.707 176.021C311.979 175.9 312.278 175.839 312.604 175.839C312.873 175.839 313.123 175.88 313.355 175.961C313.589 176.041 313.797 176.154 313.979 176.302C314.163 176.448 314.316 176.623 314.439 176.826C314.562 177.029 314.646 177.253 314.692 177.5H314.056ZM315.505 178.557H321.238V179.033H315.505V178.557ZM318.123 178.795H318.704V180.251H318.123V178.795ZM316.233 180.93H320.601V181.406H316.233V180.93ZM316.233 179.691H316.807V181.112H316.233V179.691ZM316.268 175.414H316.842V176.219H319.901V175.414H320.482V177.948H316.268V175.414ZM316.842 176.674V177.479H319.901V176.674H316.842ZM326.557 175.218H327.138V181.546H326.557V175.218ZM324.702 175.897H325.276C325.276 177.731 324.45 179.334 322.336 180.37L322.028 179.901C323.855 179.019 324.702 177.675 324.702 175.995V175.897ZM322.315 175.897H324.954V176.373H322.315V175.897Z" fill="black"/>
<path d="M289 184H349V192C349 197.523 344.523 202 339 202H299C293.477 202 289 197.523 289 192V184Z" fill="#FF7070"/>
<circle cx="309" cy="193" r="6" fill="white"/>
<circle cx="329" cy="193" r="6" fill="white"/>
<path d="M307.165 196V190.182H309.131C309.588 190.182 309.961 190.264 310.251 190.429C310.542 190.592 310.758 190.812 310.898 191.091C311.039 191.369 311.109 191.68 311.109 192.023C311.109 192.366 311.039 192.677 310.898 192.957C310.76 193.238 310.546 193.461 310.256 193.628C309.967 193.793 309.595 193.875 309.143 193.875H307.734V193.25H309.12C309.433 193.25 309.683 193.196 309.873 193.088C310.062 192.98 310.2 192.834 310.285 192.651C310.372 192.465 310.415 192.256 310.415 192.023C310.415 191.79 310.372 191.581 310.285 191.398C310.2 191.214 310.061 191.07 309.87 190.966C309.679 190.86 309.425 190.807 309.109 190.807H307.87V196H307.165Z" fill="black"/>
<path d="M327.357 196V190.182H330.846V190.807H328.061V192.773H330.584V193.398H328.061V196H327.357Z" fill="black"/>
<rect x="776" y="172" width="60" height="30" rx="10" fill="#FFC83A"/>
<path d="M797.901 181V175.909H799.68C800.035 175.909 800.328 175.97 800.558 176.093C800.788 176.214 800.96 176.377 801.073 176.583C801.185 176.787 801.242 177.013 801.242 177.261C801.242 177.48 801.203 177.661 801.125 177.803C801.049 177.946 800.947 178.058 800.821 178.141C800.697 178.224 800.562 178.286 800.416 178.325V178.375C800.572 178.385 800.729 178.44 800.886 178.539C801.044 178.638 801.175 178.781 801.281 178.967C801.387 179.152 801.44 179.379 801.44 179.648C801.44 179.903 801.382 180.132 801.266 180.336C801.15 180.54 800.967 180.702 800.717 180.821C800.467 180.94 800.141 181 799.74 181H797.901ZM798.517 180.453H799.74C800.143 180.453 800.429 180.375 800.598 180.219C800.768 180.062 800.854 179.871 800.854 179.648C800.854 179.475 800.81 179.316 800.722 179.17C800.634 179.023 800.509 178.905 800.347 178.817C800.184 178.728 799.992 178.683 799.77 178.683H798.517V180.453ZM798.517 178.146H799.661C799.846 178.146 800.014 178.11 800.163 178.037C800.314 177.964 800.433 177.861 800.521 177.729C800.61 177.596 800.655 177.44 800.655 177.261C800.655 177.038 800.577 176.848 800.421 176.692C800.265 176.535 800.019 176.456 799.68 176.456H798.517V178.146ZM802.18 178.557H807.913V179.033H802.18V178.557ZM804.798 178.795H805.379V180.251H804.798V178.795ZM802.908 180.93H807.276V181.406H802.908V180.93ZM802.908 179.691H803.482V181.112H802.908V179.691ZM802.943 175.414H803.517V176.219H806.576V175.414H807.157V177.948H802.943V175.414ZM803.517 176.674V177.479H806.576V176.674H803.517ZM813.232 175.218H813.813V181.546H813.232V175.218ZM811.377 175.897H811.951C811.951 177.731 811.125 179.334 809.011 180.37L808.703 179.901C810.53 179.019 811.377 177.675 811.377 175.995V175.897ZM808.99 175.897H811.629V176.373H808.99V175.897Z" fill="black"/>
<path d="M776 184H836V192C836 197.523 831.523 202 826 202H786C780.477 202 776 197.523 776 192V184Z" fill="#FF7070"/>
<circle cx="796" cy="193" r="6" fill="white"/>
<circle cx="816" cy="193" r="6" fill="white"/>
<path d="M794.165 196V190.182H796.131C796.588 190.182 796.961 190.264 797.251 190.429C797.542 190.592 797.758 190.812 797.898 191.091C798.039 191.369 798.109 191.68 798.109 192.023C798.109 192.366 798.039 192.677 797.898 192.957C797.76 193.238 797.546 193.461 797.256 193.628C796.967 193.793 796.595 193.875 796.143 193.875H794.734V193.25H796.12C796.433 193.25 796.683 193.196 796.873 193.088C797.062 192.98 797.2 192.834 797.285 192.651C797.372 192.465 797.415 192.256 797.415 192.023C797.415 191.79 797.372 191.581 797.285 191.398C797.2 191.214 797.061 191.07 796.87 190.966C796.679 190.86 796.425 190.807 796.109 190.807H794.87V196H794.165Z" fill="black"/>
<path d="M814.357 196V190.182H817.846V190.807H815.061V192.773H817.584V193.398H815.061V196H814.357Z" fill="black"/>
<rect x="646" y="172" width="60" height="30" rx="10" fill="#FFC83A"/>
<path d="M669.232 181H667.661V175.909H669.302C669.796 175.909 670.218 176.011 670.57 176.215C670.921 176.417 671.19 176.708 671.378 177.087C671.565 177.465 671.659 177.918 671.659 178.445C671.659 178.975 671.564 179.431 671.375 179.814C671.186 180.195 670.911 180.489 670.55 180.694C670.189 180.898 669.749 181 669.232 181ZM668.278 180.453H669.193C669.614 180.453 669.962 180.372 670.239 180.21C670.516 180.047 670.722 179.816 670.858 179.516C670.994 179.216 671.062 178.859 671.062 178.445C671.062 178.034 670.995 177.68 670.861 177.383C670.726 177.085 670.526 176.856 670.259 176.697C669.992 176.536 669.66 176.456 669.262 176.456H668.278V180.453ZM672.419 178.557H678.152V179.033H672.419V178.557ZM675.037 178.795H675.618V180.251H675.037V178.795ZM673.147 180.93H677.515V181.406H673.147V180.93ZM673.147 179.691H673.721V181.112H673.147V179.691ZM673.182 175.414H673.756V176.219H676.815V175.414H677.396V177.948H673.182V175.414ZM673.756 176.674V177.479H676.815V176.674H673.756ZM683.472 175.218H684.053V181.546H683.472V175.218ZM681.617 175.897H682.191C682.191 177.731 681.365 179.334 679.251 180.37L678.943 179.901C680.77 179.019 681.617 177.675 681.617 175.995V175.897ZM679.23 175.897H681.869V176.373H679.23V175.897Z" fill="black"/>
<path d="M646 184H706V192C706 197.523 701.523 202 696 202H656C650.477 202 646 197.523 646 192V184Z" fill="#FF7070"/>
<circle cx="666" cy="193" r="6" fill="white"/>
<circle cx="686" cy="193" r="6" fill="white"/>
<path d="M664.165 196V190.182H666.131C666.588 190.182 666.961 190.264 667.251 190.429C667.542 190.592 667.758 190.812 667.898 191.091C668.039 191.369 668.109 191.68 668.109 192.023C668.109 192.366 668.039 192.677 667.898 192.957C667.76 193.238 667.546 193.461 667.256 193.628C666.967 193.793 666.595 193.875 666.143 193.875H664.734V193.25H666.12C666.433 193.25 666.683 193.196 666.873 193.088C667.062 192.98 667.2 192.834 667.285 192.651C667.372 192.465 667.415 192.256 667.415 192.023C667.415 191.79 667.372 191.581 667.285 191.398C667.2 191.214 667.061 191.07 666.87 190.966C666.679 190.86 666.425 190.807 666.109 190.807H664.87V196H664.165Z" fill="black"/>
<path d="M684.357 196V190.182H687.846V190.807H685.061V192.773H687.584V193.398H685.061V196H684.357Z" fill="black"/>
<rect x="640" y="112" width="60" height="30" rx="10" fill="#FFC83A"/>
<path d="M662.021 121H661.374L663.244 115.909H663.88L665.749 121H665.103L663.582 116.714H663.542L662.021 121ZM662.259 119.011H664.864V119.558H662.259V119.011ZM666.269 118.557H672.002V119.033H666.269V118.557ZM668.887 118.795H669.468V120.251H668.887V118.795ZM666.997 120.93H671.365V121.406H666.997V120.93ZM666.997 119.691H667.571V121.112H666.997V119.691ZM667.032 115.414H667.606V116.219H670.665V115.414H671.246V117.948H667.032V115.414ZM667.606 116.674V117.479H670.665V116.674H667.606ZM677.321 115.218H677.902V121.546H677.321V115.218ZM675.466 115.897H676.04C676.04 117.731 675.214 119.334 673.1 120.37L672.792 119.901C674.619 119.019 675.466 117.675 675.466 115.995V115.897ZM673.079 115.897H675.718V116.373H673.079V115.897Z" fill="black"/>
<path d="M640 124H700V132C700 137.523 695.523 142 690 142H650C644.477 142 640 137.523 640 132V124Z" fill="#FF7070"/>
<circle cx="660" cy="133" r="6" fill="white"/>
<circle cx="680" cy="133" r="6" fill="white"/>
<path d="M658.165 136V130.182H660.131C660.588 130.182 660.961 130.264 661.251 130.429C661.542 130.592 661.758 130.812 661.898 131.091C662.039 131.369 662.109 131.68 662.109 132.023C662.109 132.366 662.039 132.677 661.898 132.957C661.76 133.238 661.546 133.461 661.256 133.628C660.967 133.793 660.595 133.875 660.143 133.875H658.734V133.25H660.12C660.433 133.25 660.683 133.196 660.873 133.088C661.062 132.98 661.2 132.834 661.285 132.651C661.372 132.465 661.415 132.256 661.415 132.023C661.415 131.79 661.372 131.581 661.285 131.398C661.2 131.214 661.061 131.07 660.87 130.966C660.679 130.86 660.425 130.807 660.109 130.807H658.87V136H658.165Z" fill="black"/>
<path d="M678.357 136V130.182H681.846V130.807H679.061V132.773H681.584V133.398H679.061V136H678.357Z" fill="black"/>
<rect x="360" y="107" width="60" height="40" rx="15" fill="#4AFF2D"/>
<rect x="256" y="262" width="60" height="40" rx="15" fill="#4AFF2D"/>
<rect x="134" y="481" width="60" height="40" rx="15" fill="#4AFF2D"/>
<rect x="402" y="481" width="60" height="40" rx="15" fill="#4AFF2D"/>
<rect x="268" y="481" width="60" height="40" rx="15" fill="#4AFF2D"/>
<rect x="536" y="481" width="60" height="40" rx="15" fill="#4AFF2D"/>
<rect x="912" y="190" width="60" height="40" rx="15" fill="#4AFF2D"/>
<rect x="968" y="286" width="60" height="40" rx="15" fill="#4AFF2D"/>
<rect x="896" y="388" width="60" height="40" rx="15" fill="#4AFF2D"/>
<rect x="323" y="262" width="60" height="40" rx="15" fill="#4AFF2D"/>
<rect x="201" y="481" width="60" height="40" rx="15" fill="#4AFF2D"/>
<rect x="469" y="481" width="60" height="40" rx="15" fill="#4AFF2D"/>
<rect x="335" y="481" width="60" height="40" rx="15" fill="#4AFF2D"/>
<rect x="603" y="481" width="60" height="40" rx="15" fill="#4AFF2D"/>
<rect x="670" y="481" width="60" height="40" rx="15" fill="#4AFF2D"/>
<rect x="564" y="382" width="60" height="40" rx="15" fill="#4AFF2D"/>
<rect x="497" y="349" width="60" height="40" rx="15" fill="#4AFF2D"/>
<rect x="572" y="218" width="60" height="40" rx="15" fill="#4AFF2D"/>
<rect x="912" y="143" width="60" height="40" rx="15" fill="#4AFF2D"/>
<rect x="968" y="239" width="60" height="40" rx="15" fill="#4AFF2D"/>
<rect x="956" y="341" width="60" height="40" rx="15" fill="#4AFF2D"/>
<rect x="956" y="435" width="60" height="40" rx="15" fill="#4AFF2D"/>
<rect x="780" y="107" width="60" height="40" rx="15" fill="#4AFF2D"/>
<path d="M376.005 125C375.911 124.713 375.788 124.456 375.634 124.229C375.484 123.999 375.303 123.803 375.093 123.641C374.886 123.479 374.65 123.355 374.386 123.27C374.122 123.185 373.832 123.142 373.517 123.142C372.999 123.142 372.529 123.276 372.106 123.543C371.683 123.81 371.346 124.203 371.096 124.723C370.846 125.243 370.721 125.881 370.721 126.636C370.721 127.392 370.847 128.03 371.1 128.55C371.353 129.07 371.695 129.463 372.127 129.73C372.559 129.997 373.045 130.131 373.585 130.131C374.085 130.131 374.525 130.024 374.906 129.811C375.289 129.595 375.588 129.291 375.801 128.899C376.017 128.504 376.124 128.04 376.124 127.506L376.448 127.574H373.823V126.636H377.147V127.574C377.147 128.293 376.994 128.918 376.687 129.449C376.383 129.98 375.963 130.392 375.426 130.685C374.892 130.974 374.278 131.119 373.585 131.119C372.812 131.119 372.133 130.938 371.548 130.574C370.965 130.21 370.511 129.693 370.184 129.023C369.86 128.352 369.698 127.557 369.698 126.636C369.698 125.946 369.791 125.325 369.975 124.774C370.163 124.22 370.427 123.749 370.768 123.359C371.109 122.97 371.512 122.672 371.978 122.464C372.444 122.257 372.957 122.153 373.517 122.153C373.977 122.153 374.406 122.223 374.803 122.362C375.204 122.499 375.561 122.693 375.873 122.946C376.188 123.196 376.451 123.496 376.661 123.845C376.872 124.192 377.017 124.577 377.096 125H376.005ZM378.884 122.108H379.832V124.76H382.1V122.108H383.024V129.224H378.884V122.108ZM379.832 125.564V128.408H382.1V125.564H379.832ZM386.756 121.088H387.716V131.936H386.756V121.088ZM385.016 125.384H387.104V126.2H385.016V125.384ZM384.356 121.316H385.304V131.396H384.356V121.316ZM393.919 121.472H394.795V122.072C394.795 124.148 392.683 125.636 390.427 126.02L390.031 125.216C392.011 124.916 393.919 123.62 393.919 122.072V121.472ZM394.099 121.472H394.963V122.072C394.963 123.584 396.895 124.916 398.851 125.216L398.455 126.02C396.223 125.636 394.099 124.124 394.099 122.072V121.472ZM393.919 127.808H394.903V131.936H393.919V127.808ZM389.539 127.196H399.343V128.024H389.539V127.196ZM403.447 122.636H404.251V124.4C404.251 126.692 402.871 128.996 401.143 129.848L400.567 129.056C402.139 128.312 403.447 126.272 403.447 124.4V122.636ZM403.639 122.636H404.443V124.4C404.443 126.236 405.751 128.108 407.347 128.792L406.783 129.584C405.031 128.768 403.639 126.656 403.639 124.4V122.636ZM400.927 122.192H406.987V123.032H400.927V122.192ZM408.451 121.088H409.447V131.936H408.451V121.088Z" fill="black"/>
<path d="M266.977 286V277.273H272.21V278.21H268.034V281.159H271.818V282.097H268.034V286H266.977ZM273.947 277.108H274.895V279.76H277.163V277.108H278.087V284.224H273.947V277.108ZM274.895 280.564V283.408H277.163V280.564H274.895ZM281.819 276.088H282.779V286.936H281.819V276.088ZM280.079 280.384H282.167V281.2H280.079V280.384ZM279.419 276.316H280.367V286.396H279.419V276.316ZM288.982 276.472H289.858V277.072C289.858 279.148 287.746 280.636 285.49 281.02L285.094 280.216C287.074 279.916 288.982 278.62 288.982 277.072V276.472ZM289.162 276.472H290.026V277.072C290.026 278.584 291.958 279.916 293.914 280.216L293.518 281.02C291.286 280.636 289.162 279.124 289.162 277.072V276.472ZM288.982 282.808H289.966V286.936H288.982V282.808ZM284.602 282.196H294.406V283.024H284.602V282.196ZM298.509 277.636H299.313V279.4C299.313 281.692 297.933 283.996 296.205 284.848L295.629 284.056C297.201 283.312 298.509 281.272 298.509 279.4V277.636ZM298.701 277.636H299.505V279.4C299.505 281.236 300.813 283.108 302.409 283.792L301.845 284.584C300.093 283.768 298.701 281.656 298.701 279.4V277.636ZM295.989 277.192H302.049V278.032H295.989V277.192ZM303.513 276.088H304.509V286.936H303.513V276.088Z" fill="black"/>
<path d="M144.057 505V496.273H145.114V500.159H149.767V496.273H150.824V505H149.767V501.097H145.114V505H144.057ZM152.867 496.108H153.815V498.76H156.083V496.108H157.007V503.224H152.867V496.108ZM153.815 499.564V502.408H156.083V499.564H153.815ZM160.739 495.088H161.699V505.936H160.739V495.088ZM158.999 499.384H161.087V500.2H158.999V499.384ZM158.339 495.316H159.287V505.396H158.339V495.316ZM167.902 495.472H168.778V496.072C168.778 498.148 166.666 499.636 164.41 500.02L164.014 499.216C165.994 498.916 167.902 497.62 167.902 496.072V495.472ZM168.082 495.472H168.946V496.072C168.946 497.584 170.878 498.916 172.834 499.216L172.438 500.02C170.206 499.636 168.082 498.124 168.082 496.072V495.472ZM167.902 501.808H168.886V505.936H167.902V501.808ZM163.522 501.196H173.326V502.024H163.522V501.196ZM177.429 496.636H178.233V498.4C178.233 500.692 176.853 502.996 175.125 503.848L174.549 503.056C176.121 502.312 177.429 500.272 177.429 498.4V496.636ZM177.621 496.636H178.425V498.4C178.425 500.236 179.733 502.108 181.329 502.792L180.765 503.584C179.013 502.768 177.621 500.656 177.621 498.4V496.636ZM174.909 496.192H180.969V497.032H174.909V496.192ZM182.433 495.088H183.429V505.936H182.433V495.088Z" fill="black"/>
<path d="M413.123 505V496.273H414.18V504.062H418.237V505H413.123ZM419.8 496.108H420.748V498.76H423.016V496.108H423.94V503.224H419.8V496.108ZM420.748 499.564V502.408H423.016V499.564H420.748ZM427.672 495.088H428.632V505.936H427.672V495.088ZM425.932 499.384H428.02V500.2H425.932V499.384ZM425.272 495.316H426.22V505.396H425.272V495.316ZM434.835 495.472H435.711V496.072C435.711 498.148 433.599 499.636 431.343 500.02L430.947 499.216C432.927 498.916 434.835 497.62 434.835 496.072V495.472ZM435.015 495.472H435.879V496.072C435.879 497.584 437.811 498.916 439.767 499.216L439.371 500.02C437.139 499.636 435.015 498.124 435.015 496.072V495.472ZM434.835 501.808H435.819V505.936H434.835V501.808ZM430.455 501.196H440.259V502.024H430.455V501.196ZM444.363 496.636H445.167V498.4C445.167 500.692 443.787 502.996 442.059 503.848L441.483 503.056C443.055 502.312 444.363 500.272 444.363 498.4V496.636ZM444.555 496.636H445.359V498.4C445.359 500.236 446.667 502.108 448.263 502.792L447.699 503.584C445.947 502.768 444.555 500.656 444.555 498.4V496.636ZM441.843 496.192H447.903V497.032H441.843V496.192ZM449.367 495.088H450.363V505.936H449.367V495.088Z" fill="black"/>
<path d="M282.581 496.273H283.638V502.511C283.638 503.068 283.536 503.541 283.331 503.93C283.127 504.32 282.838 504.615 282.466 504.817C282.094 505.018 281.655 505.119 281.15 505.119C280.672 505.119 280.248 505.033 279.875 504.859C279.503 504.683 279.211 504.433 278.998 504.109C278.784 503.786 278.678 503.401 278.678 502.955H279.718C279.718 503.202 279.779 503.418 279.901 503.602C280.026 503.784 280.196 503.926 280.412 504.028C280.628 504.131 280.874 504.182 281.15 504.182C281.453 504.182 281.712 504.118 281.925 503.99C282.138 503.862 282.3 503.675 282.411 503.428C282.525 503.178 282.581 502.872 282.581 502.511V496.273ZM285.683 496.108H286.631V498.76H288.899V496.108H289.823V503.224H285.683V496.108ZM286.631 499.564V502.408H288.899V499.564H286.631ZM293.555 495.088H294.515V505.936H293.555V495.088ZM291.815 499.384H293.903V500.2H291.815V499.384ZM291.155 495.316H292.103V505.396H291.155V495.316ZM300.718 495.472H301.594V496.072C301.594 498.148 299.482 499.636 297.226 500.02L296.83 499.216C298.81 498.916 300.718 497.62 300.718 496.072V495.472ZM300.898 495.472H301.762V496.072C301.762 497.584 303.694 498.916 305.65 499.216L305.254 500.02C303.022 499.636 300.898 498.124 300.898 496.072V495.472ZM300.718 501.808H301.702V505.936H300.718V501.808ZM296.338 501.196H306.142V502.024H296.338V501.196ZM310.245 496.636H311.049V498.4C311.049 500.692 309.669 502.996 307.941 503.848L307.365 503.056C308.937 502.312 310.245 500.272 310.245 498.4V496.636ZM310.437 496.636H311.241V498.4C311.241 500.236 312.549 502.108 314.145 502.792L313.581 503.584C311.829 502.768 310.437 500.656 310.437 498.4V496.636ZM307.725 496.192H313.785V497.032H307.725V496.192ZM315.249 495.088H316.245V505.936H315.249V495.088Z" fill="black"/>
<path d="M552.901 496.273V505H551.878L547.123 498.148H547.037V505H545.981V496.273H547.003L551.776 503.142H551.861V496.273H552.901ZM554.943 496.108H555.891V498.76H558.159V496.108H559.083V503.224H554.943V496.108ZM555.891 499.564V502.408H558.159V499.564H555.891ZM562.815 495.088H563.775V505.936H562.815V495.088ZM561.075 499.384H563.163V500.2H561.075V499.384ZM560.415 495.316H561.363V505.396H560.415V495.316ZM569.978 495.472H570.854V496.072C570.854 498.148 568.742 499.636 566.486 500.02L566.09 499.216C568.07 498.916 569.978 497.62 569.978 496.072V495.472ZM570.158 495.472H571.022V496.072C571.022 497.584 572.954 498.916 574.91 499.216L574.514 500.02C572.282 499.636 570.158 498.124 570.158 496.072V495.472ZM569.978 501.808H570.962V505.936H569.978V501.808ZM565.598 501.196H575.402V502.024H565.598V501.196ZM579.505 496.636H580.309V498.4C580.309 500.692 578.929 502.996 577.201 503.848L576.625 503.056C578.197 502.312 579.505 500.272 579.505 498.4V496.636ZM579.697 496.636H580.501V498.4C580.501 500.236 581.809 502.108 583.405 502.792L582.841 503.584C581.089 502.768 579.697 500.656 579.697 498.4V496.636ZM576.985 496.192H583.045V497.032H576.985V496.192ZM584.509 495.088H585.505V505.936H584.509V495.088Z" fill="black"/>
<path d="M929.156 208H928.099C928.036 207.696 927.927 207.429 927.771 207.199C927.617 206.969 927.43 206.776 927.208 206.619C926.99 206.46 926.747 206.341 926.48 206.261C926.213 206.182 925.934 206.142 925.644 206.142C925.116 206.142 924.637 206.276 924.208 206.543C923.782 206.81 923.443 207.203 923.19 207.723C922.94 208.243 922.815 208.881 922.815 209.636C922.815 210.392 922.94 211.03 923.19 211.55C923.443 212.07 923.782 212.463 924.208 212.73C924.637 212.997 925.116 213.131 925.644 213.131C925.934 213.131 926.213 213.091 926.48 213.011C926.747 212.932 926.99 212.814 927.208 212.658C927.43 212.499 927.617 212.304 927.771 212.074C927.927 211.841 928.036 211.574 928.099 211.273H929.156C929.076 211.719 928.931 212.118 928.721 212.47C928.511 212.822 928.249 213.122 927.937 213.369C927.624 213.614 927.274 213.8 926.884 213.928C926.498 214.055 926.085 214.119 925.644 214.119C924.9 214.119 924.238 213.938 923.659 213.574C923.079 213.21 922.623 212.693 922.291 212.023C921.958 211.352 921.792 210.557 921.792 209.636C921.792 208.716 921.958 207.92 922.291 207.25C922.623 206.58 923.079 206.062 923.659 205.699C924.238 205.335 924.9 205.153 925.644 205.153C926.085 205.153 926.498 205.217 926.884 205.345C927.274 205.473 927.624 205.661 927.937 205.908C928.249 206.152 928.511 206.45 928.721 206.803C928.931 207.152 929.076 207.551 929.156 208ZM930.791 205.108H931.739V207.76H934.007V205.108H934.931V212.224H930.791V205.108ZM931.739 208.564V211.408H934.007V208.564H931.739ZM938.663 204.088H939.623V214.936H938.663V204.088ZM936.923 208.384H939.011V209.2H936.923V208.384ZM936.263 204.316H937.211V214.396H936.263V204.316ZM945.826 204.472H946.702V205.072C946.702 207.148 944.59 208.636 942.334 209.02L941.938 208.216C943.918 207.916 945.826 206.62 945.826 205.072V204.472ZM946.006 204.472H946.87V205.072C946.87 206.584 948.802 207.916 950.758 208.216L950.362 209.02C948.13 208.636 946.006 207.124 946.006 205.072V204.472ZM945.826 210.808H946.81V214.936H945.826V210.808ZM941.446 210.196H951.25V211.024H941.446V210.196ZM955.353 205.636H956.157V207.4C956.157 209.692 954.777 211.996 953.049 212.848L952.473 212.056C954.045 211.312 955.353 209.272 955.353 207.4V205.636ZM955.545 205.636H956.349V207.4C956.349 209.236 957.657 211.108 959.253 211.792L958.689 212.584C956.937 211.768 955.545 209.656 955.545 207.4V205.636ZM952.833 205.192H958.893V206.032H952.833V205.192ZM960.357 204.088H961.353V214.936H960.357V204.088Z" fill="black"/>
<path d="M978.171 302.21V301.273H984.717V302.21H981.972V310H980.916V302.21H978.171ZM986.275 301.108H987.223V303.76H989.491V301.108H990.415V308.224H986.275V301.108ZM987.223 304.564V307.408H989.491V304.564H987.223ZM994.147 300.088H995.107V310.936H994.147V300.088ZM992.407 304.384H994.495V305.2H992.407V304.384ZM991.747 300.316H992.695V310.396H991.747V300.316ZM1001.31 300.472H1002.19V301.072C1002.19 303.148 1000.07 304.636 997.818 305.02L997.422 304.216C999.402 303.916 1001.31 302.62 1001.31 301.072V300.472ZM1001.49 300.472H1002.35V301.072C1002.35 302.584 1004.29 303.916 1006.24 304.216L1005.85 305.02C1003.61 304.636 1001.49 303.124 1001.49 301.072V300.472ZM1001.31 306.808H1002.29V310.936H1001.31V306.808ZM996.93 306.196H1006.73V307.024H996.93V306.196ZM1010.84 301.636H1011.64V303.4C1011.64 305.692 1010.26 307.996 1008.53 308.848L1007.96 308.056C1009.53 307.312 1010.84 305.272 1010.84 303.4V301.636ZM1011.03 301.636H1011.83V303.4C1011.83 305.236 1013.14 307.108 1014.74 307.792L1014.17 308.584C1012.42 307.768 1011.03 305.656 1011.03 303.4V301.636ZM1008.32 301.192H1014.38V302.032H1008.32V301.192ZM1015.84 300.088H1016.84V310.936H1015.84V300.088Z" fill="black"/>
<path d="M906.801 403.273L909.392 410.619H909.495L912.086 403.273H913.194L909.989 412H908.898L905.694 403.273H906.801ZM914.48 403.108H915.428V405.76H917.696V403.108H918.62V410.224H914.48V403.108ZM915.428 406.564V409.408H917.696V406.564H915.428ZM922.352 402.088H923.312V412.936H922.352V402.088ZM920.612 406.384H922.7V407.2H920.612V406.384ZM919.952 402.316H920.9V412.396H919.952V402.316ZM929.515 402.472H930.391V403.072C930.391 405.148 928.279 406.636 926.023 407.02L925.627 406.216C927.607 405.916 929.515 404.62 929.515 403.072V402.472ZM929.695 402.472H930.559V403.072C930.559 404.584 932.491 405.916 934.447 406.216L934.051 407.02C931.819 406.636 929.695 405.124 929.695 403.072V402.472ZM929.515 408.808H930.499V412.936H929.515V408.808ZM925.135 408.196H934.939V409.024H925.135V408.196ZM939.042 403.636H939.846V405.4C939.846 407.692 938.466 409.996 936.738 410.848L936.162 410.056C937.734 409.312 939.042 407.272 939.042 405.4V403.636ZM939.234 403.636H940.038V405.4C940.038 407.236 941.346 409.108 942.942 409.792L942.378 410.584C940.626 409.768 939.234 407.656 939.234 405.4V403.636ZM936.522 403.192H942.582V404.032H936.522V403.192ZM944.046 402.088H945.042V412.936H944.046V402.088Z" fill="black"/>
<path d="M333.912 286V277.273H339.179V278.21H334.969V281.159H338.907V282.097H334.969V285.062H339.248V286H333.912ZM341.011 277.108H341.959V279.76H344.227V277.108H345.151V284.224H341.011V277.108ZM341.959 280.564V283.408H344.227V280.564H341.959ZM348.883 276.088H349.843V286.936H348.883V276.088ZM347.143 280.384H349.231V281.2H347.143V280.384ZM346.483 276.316H347.431V286.396H346.483V276.316ZM356.046 276.472H356.922V277.072C356.922 279.148 354.81 280.636 352.554 281.02L352.158 280.216C354.138 279.916 356.046 278.62 356.046 277.072V276.472ZM356.226 276.472H357.09V277.072C357.09 278.584 359.022 279.916 360.978 280.216L360.582 281.02C358.35 280.636 356.226 279.124 356.226 277.072V276.472ZM356.046 282.808H357.03V286.936H356.046V282.808ZM351.666 282.196H361.47V283.024H351.666V282.196ZM365.573 277.636H366.377V279.4C366.377 281.692 364.997 283.996 363.269 284.848L362.693 284.056C364.265 283.312 365.573 281.272 365.573 279.4V277.636ZM365.765 277.636H366.569V279.4C366.569 281.236 367.877 283.108 369.473 283.792L368.909 284.584C367.157 283.768 365.765 281.656 365.765 279.4V277.636ZM363.053 277.192H369.113V278.032H363.053V277.192ZM370.577 276.088H371.573V286.936H370.577V276.088Z" fill="black"/>
<path d="M214.967 496.273V505H213.91V496.273H214.967ZM217.013 496.108H217.961V498.76H220.229V496.108H221.153V503.224H217.013V496.108ZM217.961 499.564V502.408H220.229V499.564H217.961ZM224.885 495.088H225.845V505.936H224.885V495.088ZM223.145 499.384H225.233V500.2H223.145V499.384ZM222.485 495.316H223.433V505.396H222.485V495.316ZM232.048 495.472H232.924V496.072C232.924 498.148 230.812 499.636 228.556 500.02L228.16 499.216C230.14 498.916 232.048 497.62 232.048 496.072V495.472ZM232.228 495.472H233.092V496.072C233.092 497.584 235.024 498.916 236.98 499.216L236.584 500.02C234.352 499.636 232.228 498.124 232.228 496.072V495.472ZM232.048 501.808H233.032V505.936H232.048V501.808ZM227.668 501.196H237.472V502.024H227.668V501.196ZM241.575 496.636H242.379V498.4C242.379 500.692 240.999 502.996 239.271 503.848L238.695 503.056C240.267 502.312 241.575 500.272 241.575 498.4V496.636ZM241.767 496.636H242.571V498.4C242.571 500.236 243.879 502.108 245.475 502.792L244.911 503.584C243.159 502.768 241.767 500.656 241.767 498.4V496.636ZM239.055 496.192H245.115V497.032H239.055V496.192ZM246.579 495.088H247.575V505.936H246.579V495.088Z" fill="black"/>
<path d="M478.16 496.273H479.422L482.388 503.517H482.49L485.456 496.273H486.717V505H485.729V498.369H485.643L482.916 505H481.961L479.234 498.369H479.149V505H478.16V496.273ZM488.763 496.108H489.711V498.76H491.979V496.108H492.903V503.224H488.763V496.108ZM489.711 499.564V502.408H491.979V499.564H489.711ZM496.635 495.088H497.595V505.936H496.635V495.088ZM494.895 499.384H496.983V500.2H494.895V499.384ZM494.235 495.316H495.183V505.396H494.235V495.316ZM503.798 495.472H504.674V496.072C504.674 498.148 502.562 499.636 500.306 500.02L499.91 499.216C501.89 498.916 503.798 497.62 503.798 496.072V495.472ZM503.978 495.472H504.842V496.072C504.842 497.584 506.774 498.916 508.73 499.216L508.334 500.02C506.102 499.636 503.978 498.124 503.978 496.072V495.472ZM503.798 501.808H504.782V505.936H503.798V501.808ZM499.418 501.196H509.222V502.024H499.418V501.196ZM513.325 496.636H514.129V498.4C514.129 500.692 512.749 502.996 511.021 503.848L510.445 503.056C512.017 502.312 513.325 500.272 513.325 498.4V496.636ZM513.517 496.636H514.321V498.4C514.321 500.236 515.629 502.108 517.225 502.792L516.661 503.584C514.909 502.768 513.517 500.656 513.517 498.4V496.636ZM510.805 496.192H516.865V497.032H510.805V496.192ZM518.329 495.088H519.325V505.936H518.329V495.088Z" fill="black"/>
<path d="M345.584 505V496.273H346.641V500.602H346.743L350.664 496.273H352.044L348.38 500.21L352.044 505H350.766L347.732 500.943L346.641 502.17V505H345.584ZM353.339 496.108H354.287V498.76H356.555V496.108H357.479V503.224H353.339V496.108ZM354.287 499.564V502.408H356.555V499.564H354.287ZM361.211 495.088H362.171V505.936H361.211V495.088ZM359.471 499.384H361.559V500.2H359.471V499.384ZM358.811 495.316H359.759V505.396H358.811V495.316ZM368.375 495.472H369.251V496.072C369.251 498.148 367.139 499.636 364.883 500.02L364.487 499.216C366.467 498.916 368.375 497.62 368.375 496.072V495.472ZM368.555 495.472H369.419V496.072C369.419 497.584 371.351 498.916 373.307 499.216L372.911 500.02C370.679 499.636 368.555 498.124 368.555 496.072V495.472ZM368.375 501.808H369.359V505.936H368.375V501.808ZM363.995 501.196H373.799V502.024H363.995V501.196ZM377.902 496.636H378.706V498.4C378.706 500.692 377.326 502.996 375.598 503.848L375.022 503.056C376.594 502.312 377.902 500.272 377.902 498.4V496.636ZM378.094 496.636H378.898V498.4C378.898 500.236 380.206 502.108 381.802 502.792L381.238 503.584C379.486 502.768 378.094 500.656 378.094 498.4V496.636ZM375.382 496.192H381.442V497.032H375.382V496.192ZM382.906 495.088H383.902V505.936H382.906V495.088Z" fill="black"/>
<path d="M620.292 500.636C620.292 501.557 620.125 502.352 619.793 503.023C619.461 503.693 619.005 504.21 618.425 504.574C617.846 504.938 617.184 505.119 616.439 505.119C615.695 505.119 615.033 504.938 614.453 504.574C613.874 504.21 613.418 503.693 613.086 503.023C612.753 502.352 612.587 501.557 612.587 500.636C612.587 499.716 612.753 498.92 613.086 498.25C613.418 497.58 613.874 497.062 614.453 496.699C615.033 496.335 615.695 496.153 616.439 496.153C617.184 496.153 617.846 496.335 618.425 496.699C619.005 497.062 619.461 497.58 619.793 498.25C620.125 498.92 620.292 499.716 620.292 500.636ZM619.269 500.636C619.269 499.881 619.142 499.243 618.89 498.723C618.64 498.203 618.3 497.81 617.871 497.543C617.445 497.276 616.968 497.142 616.439 497.142C615.911 497.142 615.432 497.276 615.003 497.543C614.577 497.81 614.238 498.203 613.985 498.723C613.735 499.243 613.61 499.881 613.61 500.636C613.61 501.392 613.735 502.03 613.985 502.55C614.238 503.07 614.577 503.463 615.003 503.73C615.432 503.997 615.911 504.131 616.439 504.131C616.968 504.131 617.445 503.997 617.871 503.73C618.3 503.463 618.64 503.07 618.89 502.55C619.142 502.03 619.269 501.392 619.269 500.636ZM621.996 496.108H622.944V498.76H625.212V496.108H626.136V503.224H621.996V496.108ZM622.944 499.564V502.408H625.212V499.564H622.944ZM629.868 495.088H630.828V505.936H629.868V495.088ZM628.128 499.384H630.216V500.2H628.128V499.384ZM627.468 495.316H628.416V505.396H627.468V495.316ZM637.031 495.472H637.907V496.072C637.907 498.148 635.795 499.636 633.539 500.02L633.143 499.216C635.123 498.916 637.031 497.62 637.031 496.072V495.472ZM637.211 495.472H638.075V496.072C638.075 497.584 640.007 498.916 641.963 499.216L641.567 500.02C639.335 499.636 637.211 498.124 637.211 496.072V495.472ZM637.031 501.808H638.015V505.936H637.031V501.808ZM632.651 501.196H642.455V502.024H632.651V501.196ZM646.558 496.636H647.362V498.4C647.362 500.692 645.982 502.996 644.254 503.848L643.678 503.056C645.25 502.312 646.558 500.272 646.558 498.4V496.636ZM646.75 496.636H647.554V498.4C647.554 500.236 648.862 502.108 650.458 502.792L649.894 503.584C648.142 502.768 646.75 500.656 646.75 498.4V496.636ZM644.038 496.192H650.098V497.032H644.038V496.192ZM651.562 495.088H652.558V505.936H651.562V495.088Z" fill="black"/>
<path d="M685.445 498.455C685.394 498.023 685.186 497.688 684.823 497.449C684.459 497.21 684.013 497.091 683.485 497.091C683.098 497.091 682.76 497.153 682.47 497.278C682.183 497.403 681.959 497.575 681.797 497.794C681.638 498.013 681.558 498.261 681.558 498.54C681.558 498.773 681.614 498.973 681.725 499.141C681.838 499.305 681.983 499.443 682.159 499.554C682.335 499.662 682.52 499.751 682.713 499.822C682.906 499.891 683.084 499.946 683.246 499.989L684.132 500.227C684.36 500.287 684.612 500.369 684.891 500.474C685.172 500.58 685.441 500.723 685.696 500.905C685.955 501.084 686.168 501.314 686.335 501.595C686.503 501.876 686.587 502.222 686.587 502.631C686.587 503.102 686.463 503.528 686.216 503.909C685.972 504.29 685.614 504.592 685.142 504.817C684.673 505.041 684.104 505.153 683.433 505.153C682.808 505.153 682.267 505.053 681.81 504.851C681.355 504.649 680.997 504.368 680.736 504.007C680.477 503.646 680.331 503.227 680.297 502.75H681.388C681.416 503.08 681.527 503.352 681.72 503.568C681.916 503.781 682.164 503.94 682.462 504.045C682.763 504.148 683.087 504.199 683.433 504.199C683.837 504.199 684.199 504.134 684.52 504.003C684.841 503.869 685.095 503.685 685.283 503.449C685.47 503.21 685.564 502.932 685.564 502.614C685.564 502.324 685.483 502.088 685.321 501.906C685.159 501.724 684.946 501.577 684.682 501.463C684.418 501.349 684.132 501.25 683.825 501.165L682.752 500.858C682.07 500.662 681.53 500.382 681.132 500.018C680.735 499.655 680.536 499.179 680.536 498.591C680.536 498.102 680.668 497.676 680.932 497.312C681.199 496.946 681.557 496.662 682.006 496.46C682.458 496.256 682.962 496.153 683.519 496.153C684.081 496.153 684.581 496.254 685.019 496.456C685.456 496.655 685.803 496.928 686.058 497.274C686.317 497.621 686.453 498.014 686.468 498.455H685.445ZM688.252 496.108H689.2V498.76H691.468V496.108H692.392V503.224H688.252V496.108ZM689.2 499.564V502.408H691.468V499.564H689.2ZM696.124 495.088H697.084V505.936H696.124V495.088ZM694.384 499.384H696.472V500.2H694.384V499.384ZM693.724 495.316H694.672V505.396H693.724V495.316ZM703.287 495.472H704.163V496.072C704.163 498.148 702.051 499.636 699.795 500.02L699.399 499.216C701.379 498.916 703.287 497.62 703.287 496.072V495.472ZM703.467 495.472H704.331V496.072C704.331 497.584 706.263 498.916 708.219 499.216L707.823 500.02C705.591 499.636 703.467 498.124 703.467 496.072V495.472ZM703.287 501.808H704.271V505.936H703.287V501.808ZM698.907 501.196H708.711V502.024H698.907V501.196ZM712.814 496.636H713.618V498.4C713.618 500.692 712.238 502.996 710.51 503.848L709.934 503.056C711.506 502.312 712.814 500.272 712.814 498.4V496.636ZM713.006 496.636H713.81V498.4C713.81 500.236 715.118 502.108 716.714 502.792L716.15 503.584C714.398 502.768 713.006 500.656 713.006 498.4V496.636ZM710.294 496.192H716.354V497.032H710.294V496.192ZM717.818 495.088H718.814V505.936H717.818V495.088Z" fill="black"/>
<path d="M577.098 403.273H578.257L579.229 404.551L579.485 404.892L580.934 406.818H579.775L578.82 405.54L578.581 405.216L577.098 403.273ZM581.292 401.636C581.292 402.557 581.125 403.352 580.793 404.023C580.461 404.693 580.005 405.21 579.425 405.574C578.846 405.938 578.184 406.119 577.439 406.119C576.695 406.119 576.033 405.938 575.453 405.574C574.874 405.21 574.418 404.693 574.086 404.023C573.753 403.352 573.587 402.557 573.587 401.636C573.587 400.716 573.753 399.92 574.086 399.25C574.418 398.58 574.874 398.062 575.453 397.699C576.033 397.335 576.695 397.153 577.439 397.153C578.184 397.153 578.846 397.335 579.425 397.699C580.005 398.062 580.461 398.58 580.793 399.25C581.125 399.92 581.292 400.716 581.292 401.636ZM580.269 401.636C580.269 400.881 580.142 400.243 579.89 399.723C579.64 399.203 579.3 398.81 578.871 398.543C578.445 398.276 577.968 398.142 577.439 398.142C576.911 398.142 576.432 398.276 576.003 398.543C575.577 398.81 575.238 399.203 574.985 399.723C574.735 400.243 574.61 400.881 574.61 401.636C574.61 402.392 574.735 403.03 574.985 403.55C575.238 404.07 575.577 404.463 576.003 404.73C576.432 404.997 576.911 405.131 577.439 405.131C577.968 405.131 578.445 404.997 578.871 404.73C579.3 404.463 579.64 404.07 579.89 403.55C580.142 403.03 580.269 402.392 580.269 401.636ZM582.996 397.108H583.944V399.76H586.212V397.108H587.136V404.224H582.996V397.108ZM583.944 400.564V403.408H586.212V400.564H583.944ZM590.868 396.088H591.828V406.936H590.868V396.088ZM589.128 400.384H591.216V401.2H589.128V400.384ZM588.468 396.316H589.416V406.396H588.468V396.316ZM598.031 396.472H598.907V397.072C598.907 399.148 596.795 400.636 594.539 401.02L594.143 400.216C596.123 399.916 598.031 398.62 598.031 397.072V396.472ZM598.211 396.472H599.075V397.072C599.075 398.584 601.007 399.916 602.963 400.216L602.567 401.02C600.335 400.636 598.211 399.124 598.211 397.072V396.472ZM598.031 402.808H599.015V406.936H598.031V402.808ZM593.651 402.196H603.455V403.024H593.651V402.196ZM607.558 397.636H608.362V399.4C608.362 401.692 606.982 403.996 605.254 404.848L604.678 404.056C606.25 403.312 607.558 401.272 607.558 399.4V397.636ZM607.75 397.636H608.554V399.4C608.554 401.236 609.862 403.108 611.458 403.792L610.894 404.584C609.142 403.768 607.75 401.656 607.75 399.4V397.636ZM605.038 397.192H611.098V398.032H605.038V397.192ZM612.562 396.088H613.558V406.936H612.562V396.088Z" fill="black"/>
<path d="M507.66 373V364.273H510.609C511.291 364.273 511.851 364.389 512.288 364.622C512.726 364.852 513.05 365.169 513.26 365.572C513.47 365.976 513.575 366.435 513.575 366.949C513.575 367.463 513.47 367.919 513.26 368.317C513.05 368.714 512.727 369.027 512.292 369.254C511.858 369.479 511.302 369.591 510.626 369.591H508.24V368.636H510.592C511.058 368.636 511.433 368.568 511.717 368.432C512.004 368.295 512.211 368.102 512.339 367.852C512.47 367.599 512.535 367.298 512.535 366.949C512.535 366.599 512.47 366.294 512.339 366.033C512.209 365.771 512 365.57 511.713 365.428C511.426 365.283 511.047 365.21 510.575 365.21H508.717V373H507.66ZM511.768 369.08L513.916 373H512.689L510.575 369.08H511.768ZM515.263 364.108H516.211V366.76H518.479V364.108H519.403V371.224H515.263V364.108ZM516.211 367.564V370.408H518.479V367.564H516.211ZM523.135 363.088H524.095V373.936H523.135V363.088ZM521.395 367.384H523.483V368.2H521.395V367.384ZM520.735 363.316H521.683V373.396H520.735V363.316ZM530.298 363.472H531.174V364.072C531.174 366.148 529.062 367.636 526.806 368.02L526.41 367.216C528.39 366.916 530.298 365.62 530.298 364.072V363.472ZM530.478 363.472H531.342V364.072C531.342 365.584 533.274 366.916 535.23 367.216L534.834 368.02C532.602 367.636 530.478 366.124 530.478 364.072V363.472ZM530.298 369.808H531.282V373.936H530.298V369.808ZM525.918 369.196H535.722V370.024H525.918V369.196ZM539.825 364.636H540.629V366.4C540.629 368.692 539.249 370.996 537.521 371.848L536.945 371.056C538.517 370.312 539.825 368.272 539.825 366.4V364.636ZM540.017 364.636H540.821V366.4C540.821 368.236 542.129 370.108 543.725 370.792L543.161 371.584C541.409 370.768 540.017 368.656 540.017 366.4V364.636ZM537.305 364.192H543.365V365.032H537.305V364.192ZM544.829 363.088H545.825V373.936H544.829V363.088Z" fill="black"/>
<path d="M584.879 242H582.186V233.273H584.998C585.845 233.273 586.569 233.447 587.172 233.797C587.774 234.143 588.235 234.642 588.556 235.293C588.877 235.94 589.038 236.716 589.038 237.619C589.038 238.528 588.876 239.311 588.552 239.967C588.228 240.621 587.757 241.124 587.137 241.476C586.518 241.825 585.765 242 584.879 242ZM583.243 241.062H584.811C585.532 241.062 586.13 240.923 586.605 240.645C587.079 240.366 587.433 239.97 587.666 239.456C587.899 238.942 588.015 238.33 588.015 237.619C588.015 236.915 587.9 236.308 587.67 235.8C587.44 235.288 587.096 234.896 586.639 234.624C586.181 234.348 585.612 234.21 584.93 234.21H583.243V241.062ZM590.738 233.108H591.686V235.76H593.954V233.108H594.878V240.224H590.738V233.108ZM591.686 236.564V239.408H593.954V236.564H591.686ZM598.61 232.088H599.57V242.936H598.61V232.088ZM596.87 236.384H598.958V237.2H596.87V236.384ZM596.21 232.316H597.158V242.396H596.21V232.316ZM605.773 232.472H606.649V233.072C606.649 235.148 604.537 236.636 602.281 237.02L601.885 236.216C603.865 235.916 605.773 234.62 605.773 233.072V232.472ZM605.953 232.472H606.817V233.072C606.817 234.584 608.749 235.916 610.705 236.216L610.309 237.02C608.077 236.636 605.953 235.124 605.953 233.072V232.472ZM605.773 238.808H606.757V242.936H605.773V238.808ZM601.393 238.196H611.197V239.024H601.393V238.196ZM615.3 233.636H616.104V235.4C616.104 237.692 614.724 239.996 612.996 240.848L612.42 240.056C613.992 239.312 615.3 237.272 615.3 235.4V233.636ZM615.492 233.636H616.296V235.4C616.296 237.236 617.604 239.108 619.2 239.792L618.636 240.584C616.884 239.768 615.492 237.656 615.492 235.4V233.636ZM612.78 233.192H618.84V234.032H612.78V233.192ZM620.304 232.088H621.3V242.936H620.304V232.088Z" fill="black"/>
<path d="M922.596 167V158.273H925.647C926.255 158.273 926.756 158.378 927.151 158.588C927.546 158.795 927.84 159.075 928.033 159.428C928.227 159.777 928.323 160.165 928.323 160.591C928.323 160.966 928.256 161.276 928.123 161.52C927.992 161.764 927.819 161.957 927.603 162.099C927.39 162.241 927.158 162.347 926.908 162.415V162.5C927.175 162.517 927.444 162.611 927.714 162.781C927.984 162.952 928.21 163.196 928.391 163.514C928.573 163.832 928.664 164.222 928.664 164.682C928.664 165.119 928.565 165.513 928.366 165.862C928.167 166.212 927.853 166.489 927.424 166.693C926.995 166.898 926.437 167 925.749 167H922.596ZM923.653 166.062H925.749C926.44 166.062 926.93 165.929 927.219 165.662C927.512 165.392 927.658 165.065 927.658 164.682C927.658 164.386 927.583 164.114 927.433 163.864C927.282 163.611 927.067 163.409 926.789 163.259C926.511 163.105 926.181 163.028 925.8 163.028H923.653V166.062ZM923.653 162.108H925.613C925.931 162.108 926.218 162.045 926.474 161.92C926.732 161.795 926.937 161.619 927.087 161.392C927.241 161.165 927.317 160.898 927.317 160.591C927.317 160.207 927.184 159.882 926.917 159.615C926.65 159.345 926.227 159.21 925.647 159.21H923.653V162.108ZM930.328 158.108H931.276V160.76H933.544V158.108H934.468V165.224H930.328V158.108ZM931.276 161.564V164.408H933.544V161.564H931.276ZM938.2 157.088H939.16V167.936H938.2V157.088ZM936.46 161.384H938.548V162.2H936.46V161.384ZM935.8 157.316H936.748V167.396H935.8V157.316ZM945.363 157.472H946.239V158.072C946.239 160.148 944.127 161.636 941.871 162.02L941.475 161.216C943.455 160.916 945.363 159.62 945.363 158.072V157.472ZM945.543 157.472H946.407V158.072C946.407 159.584 948.339 160.916 950.295 161.216L949.899 162.02C947.667 161.636 945.543 160.124 945.543 158.072V157.472ZM945.363 163.808H946.347V167.936H945.363V163.808ZM940.983 163.196H950.787V164.024H940.983V163.196ZM954.89 158.636H955.694V160.4C955.694 162.692 954.314 164.996 952.586 165.848L952.01 165.056C953.582 164.312 954.89 162.272 954.89 160.4V158.636ZM955.082 158.636H955.886V160.4C955.886 162.236 957.194 164.108 958.79 164.792L958.226 165.584C956.474 164.768 955.082 162.656 955.082 160.4V158.636ZM952.37 158.192H958.43V159.032H952.37V158.192ZM959.894 157.088H960.89V167.936H959.894V157.088Z" fill="black"/>
<path d="M978.69 263V254.273H981.638C982.323 254.273 982.883 254.396 983.317 254.643C983.755 254.888 984.079 255.219 984.289 255.636C984.499 256.054 984.604 256.52 984.604 257.034C984.604 257.548 984.499 258.016 984.289 258.436C984.082 258.857 983.761 259.192 983.326 259.442C982.891 259.689 982.335 259.812 981.656 259.812H979.542V258.875H981.621C982.09 258.875 982.467 258.794 982.751 258.632C983.035 258.47 983.241 258.251 983.369 257.976C983.499 257.697 983.565 257.384 983.565 257.034C983.565 256.685 983.499 256.372 983.369 256.097C983.241 255.821 983.033 255.605 982.746 255.449C982.46 255.29 982.079 255.21 981.604 255.21H979.746V263H978.69ZM986.234 254.108H987.182V256.76H989.45V254.108H990.374V261.224H986.234V254.108ZM987.182 257.564V260.408H989.45V257.564H987.182ZM994.106 253.088H995.066V263.936H994.106V253.088ZM992.366 257.384H994.454V258.2H992.366V257.384ZM991.706 253.316H992.654V263.396H991.706V253.316ZM1001.27 253.472H1002.15V254.072C1002.15 256.148 1000.03 257.636 997.777 258.02L997.381 257.216C999.361 256.916 1001.27 255.62 1001.27 254.072V253.472ZM1001.45 253.472H1002.31V254.072C1002.31 255.584 1004.25 256.916 1006.2 257.216L1005.81 258.02C1003.57 257.636 1001.45 256.124 1001.45 254.072V253.472ZM1001.27 259.808H1002.25V263.936H1001.27V259.808ZM996.889 259.196H1006.69V260.024H996.889V259.196ZM1010.8 254.636H1011.6V256.4C1011.6 258.692 1010.22 260.996 1008.49 261.848L1007.92 261.056C1009.49 260.312 1010.8 258.272 1010.8 256.4V254.636ZM1010.99 254.636H1011.79V256.4C1011.79 258.236 1013.1 260.108 1014.7 260.792L1014.13 261.584C1012.38 260.768 1010.99 258.656 1010.99 256.4V254.636ZM1008.28 254.192H1014.34V255.032H1008.28V254.192ZM1015.8 253.088H1016.8V263.936H1015.8V253.088Z" fill="black"/>
<path d="M971.778 356.273H972.835V362.051C972.835 362.648 972.694 363.18 972.413 363.649C972.135 364.115 971.741 364.483 971.233 364.753C970.724 365.02 970.128 365.153 969.443 365.153C968.758 365.153 968.162 365.02 967.653 364.753C967.145 364.483 966.75 364.115 966.469 363.649C966.19 363.18 966.051 362.648 966.051 362.051V356.273H967.108V361.966C967.108 362.392 967.202 362.771 967.389 363.104C967.577 363.433 967.844 363.693 968.19 363.884C968.54 364.071 968.957 364.165 969.443 364.165C969.929 364.165 970.346 364.071 970.696 363.884C971.045 363.693 971.312 363.433 971.497 363.104C971.684 362.771 971.778 362.392 971.778 361.966V356.273ZM974.873 356.108H975.821V358.76H978.089V356.108H979.013V363.224H974.873V356.108ZM975.821 359.564V362.408H978.089V359.564H975.821ZM982.745 355.088H983.705V365.936H982.745V355.088ZM981.005 359.384H983.093V360.2H981.005V359.384ZM980.345 355.316H981.293V365.396H980.345V355.316ZM989.908 355.472H990.784V356.072C990.784 358.148 988.672 359.636 986.416 360.02L986.02 359.216C988 358.916 989.908 357.62 989.908 356.072V355.472ZM990.088 355.472H990.952V356.072C990.952 357.584 992.884 358.916 994.84 359.216L994.444 360.02C992.212 359.636 990.088 358.124 990.088 356.072V355.472ZM989.908 361.808H990.892V365.936H989.908V361.808ZM985.528 361.196H995.332V362.024H985.528V361.196ZM999.435 356.636H1000.24V358.4C1000.24 360.692 998.859 362.996 997.131 363.848L996.555 363.056C998.127 362.312 999.435 360.272 999.435 358.4V356.636ZM999.627 356.636H1000.43V358.4C1000.43 360.236 1001.74 362.108 1003.33 362.792L1002.77 363.584C1001.02 362.768 999.627 360.656 999.627 358.4V356.636ZM996.915 356.192H1002.97V357.032H996.915V356.192ZM1004.44 355.088H1005.43V365.936H1004.44V355.088Z" fill="black"/>
<path d="M966.388 459L964.002 450.273H965.076L966.9 457.381H966.985L968.843 450.273H970.036L971.894 457.381H971.979L973.803 450.273H974.877L972.49 459H971.4L969.473 452.045H969.405L967.479 459H966.388ZM976.121 450.108H977.069V452.76H979.337V450.108H980.261V457.224H976.121V450.108ZM977.069 453.564V456.408H979.337V453.564H977.069ZM983.993 449.088H984.953V459.936H983.993V449.088ZM982.253 453.384H984.341V454.2H982.253V453.384ZM981.593 449.316H982.541V459.396H981.593V449.316ZM991.156 449.472H992.032V450.072C992.032 452.148 989.92 453.636 987.664 454.02L987.268 453.216C989.248 452.916 991.156 451.62 991.156 450.072V449.472ZM991.336 449.472H992.2V450.072C992.2 451.584 994.132 452.916 996.088 453.216L995.692 454.02C993.46 453.636 991.336 452.124 991.336 450.072V449.472ZM991.156 455.808H992.14V459.936H991.156V455.808ZM986.776 455.196H996.58V456.024H986.776V455.196ZM1000.68 450.636H1001.49V452.4C1001.49 454.692 1000.11 456.996 998.379 457.848L997.803 457.056C999.375 456.312 1000.68 454.272 1000.68 452.4V450.636ZM1000.87 450.636H1001.68V452.4C1001.68 454.236 1002.99 456.108 1004.58 456.792L1004.02 457.584C1002.27 456.768 1000.87 454.656 1000.87 452.4V450.636ZM998.163 450.192H1004.22V451.032H998.163V450.192ZM1005.69 449.088H1006.68V459.936H1005.69V449.088Z" fill="black"/>
<path d="M790.801 131H789.694L792.898 122.273H793.989L797.194 131H796.086L793.478 123.653H793.409L790.801 131ZM791.211 127.591H795.676V128.528H791.211V127.591ZM798.48 122.108H799.428V124.76H801.696V122.108H802.62V129.224H798.48V122.108ZM799.428 125.564V128.408H801.696V125.564H799.428ZM806.352 121.088H807.312V131.936H806.352V121.088ZM804.612 125.384H806.7V126.2H804.612V125.384ZM803.952 121.316H804.9V131.396H803.952V121.316ZM813.515 121.472H814.391V122.072C814.391 124.148 812.279 125.636 810.023 126.02L809.627 125.216C811.607 124.916 813.515 123.62 813.515 122.072V121.472ZM813.695 121.472H814.559V122.072C814.559 123.584 816.491 124.916 818.447 125.216L818.051 126.02C815.819 125.636 813.695 124.124 813.695 122.072V121.472ZM813.515 127.808H814.499V131.936H813.515V127.808ZM809.135 127.196H818.939V128.024H809.135V127.196ZM823.042 122.636H823.846V124.4C823.846 126.692 822.466 128.996 820.738 129.848L820.162 129.056C821.734 128.312 823.042 126.272 823.042 124.4V122.636ZM823.234 122.636H824.038V124.4C824.038 126.236 825.346 128.108 826.942 128.792L826.378 129.584C824.626 128.768 823.234 126.656 823.234 124.4V122.636ZM820.522 122.192H826.582V123.032H820.522V122.192ZM828.046 121.088H829.042V131.936H828.046V121.088Z" fill="black"/>
<path d="M882 178V195" stroke="black"/>
<path d="M938 274V291" stroke="black"/>
<path d="M319 202V232" stroke="black"/>
<path d="M527 283V304" stroke="black"/>
<path d="M472 202V222" stroke="black"/>
<path d="M600 143V187" stroke="black"/>
<path d="M817 361V455" stroke="black"/>
<path d="M741 187V268" stroke="black"/>
<path d="M432 202V304" stroke="black"/>
<path d="M600 83V113" stroke="black"/>
<path d="M432 334L432 436" stroke="black"/>
<path d="M836 187H882" stroke="black"/>
<path d="M885 283H938" stroke="black"/>
<path d="M771 408H817" stroke="black"/>
<path d="M286 247L286 262" stroke="black"/>
<path d="M164 466L164 481" stroke="black"/>
<path d="M432 466L432 481" stroke="black"/>
<path d="M298 466L298 481" stroke="black"/>
<path d="M566 466L566 481" stroke="black"/>
<path d="M353 247L353 262" stroke="black"/>
<path d="M594 283L594 298" stroke="black"/>
<path d="M741 298L741 393" stroke="black"/>
<path d="M231 466L231 481" stroke="black"/>
<path d="M499 466L499 481" stroke="black"/>
<path d="M365 466L365 481" stroke="black"/>
<path d="M633 466L633 481" stroke="black"/>
<path d="M700 466L700 481" stroke="black"/>
<path d="M594 370L594 382" stroke="black"/>
<path d="M527 334L527 349" stroke="black"/>
<path d="M594 328L594 340" stroke="black"/>
<path d="M897 210H912" stroke="black"/>
<path d="M953 306H968" stroke="black"/>
<path d="M881 408H896" stroke="black"/>
<path d="M817 408H851" stroke="black"/>
<path d="M817 455H836" stroke="black"/>
<path d="M896 361H911" stroke="black"/>
<path d="M817 361H836" stroke="black"/>
<path d="M896 455H911" stroke="black"/>
<path d="M690 283H711" stroke="black"/>
<path d="M771 283H825" stroke="black"/>
<path d="M897 163H912" stroke="black"/>
<path d="M953 259H968" stroke="black"/>
<path d="M941 361H956" stroke="black"/>
<path d="M941 455H956" stroke="black"/>
<path d="M301 232L338 232" stroke="black"/>
<path d="M179 450L216 450" stroke="black"/>
<path d="M246 450L283 450" stroke="black"/>
<path d="M380 450L417 450" stroke="black"/>
<path d="M514 450L551 450" stroke="black"/>
<path d="M447 450L484 450" stroke="black"/>
<path d="M313 450L350 450" stroke="black"/>
<path d="M581 450L618 450" stroke="black"/>
<path d="M648 450L685 450" stroke="black"/>
<path d="M349 187L422 187" stroke="black"/>
<path d="M420 127H445" stroke="black"/>
<path d="M475 127H500" stroke="black"/>
<path d="M560 127H585" stroke="black"/>
<path d="M502 238H522" stroke="black"/>
<path d="M552 238H572" stroke="black"/>
<path d="M615 127H640" stroke="black"/>
<path d="M700 127H725" stroke="black"/>
<path d="M755 127H780" stroke="black"/>
<path d="M706 187L776 187" stroke="black"/>
<path d="M482 187H646" stroke="black"/>
<path d="M527 283L630 283" stroke="black"/>
</svg>
